<?xml version="1.0" encoding="UTF-8"?>
<svg width="477px" height="600px" viewBox="0 0 477 600" version="1.1" xmlns="http://www.w3.org/2000/svg" xmlns:xlink="http://www.w3.org/1999/xlink">
    <!-- Generator: Sketch 61.2 (89653) - https://sketch.com -->
    <title>BLUE</title>
    <desc>Created with Sketch.</desc>
    <g id="Page-1" stroke="none" stroke-width="1" fill="none" fill-rule="evenodd">
        <g id="Artboard" transform="translate(-1503.000000, -177.000000)" fill-rule="nonzero">
            <g id="BLUE" transform="translate(1503.000000, 177.000000)">
                <rect id="Rectangle" fill="#DDDDDD" x="459" y="78" width="18" height="60" rx="6"></rect>
                <rect id="Rectangle-Copy-8" fill="#CFCFCF" x="454" y="78" width="18" height="60"></rect>
                <path d="M30,0 L438,0 C454.568542,-3.04359188e-15 468,13.4314575 468,30 L468,570 C468,586.568542 454.568542,600 438,600 L30,600 C13.4314575,600 2.02906125e-15,586.568542 0,570 L0,30 C-9.13448861e-15,13.4314575 13.4314575,3.04359188e-15 30,0 Z" id="Rectangle" fill="#DDDDDD"></path>
                <path d="M29,15 L439,15 C447.284271,15 454,21.7157288 454,30 L454,570 C454,578.284271 447.284271,585 439,585 L29,585 C20.7157288,585 14,578.284271 14,570 L14,30 C14,21.7157288 20.7157288,15 29,15 Z" id="Rectangle-Copy-10" fill="#1F1F1F"></path>
                <path d="M85,87 L387,87 C390.313708,87 393,89.6862915 393,93 L393,511 C393,514.313708 390.313708,517 387,517 L85,517 C81.6862915,517 79,514.313708 79,511 L79,93 C79,89.6862915 81.6862915,87 85,87 Z" id="Rectangle" fill="#454545"></path>
                <path d="M81,83 L383,83 C386.313708,83 389,85.6862915 389,89 L389,507 C389,510.313708 386.313708,513 383,513 L81,513 C77.6862915,513 75,510.313708 75,507 L75,89 C75,85.6862915 77.6862915,83 81,83 Z" id="Rectangle-Copy-24" fill="#010101"></path>
                <path d="M83,85 L385,85 C388.313708,85 391,87.6862915 391,91 L391,509 C391,512.313708 388.313708,515 385,515 L83,515 C79.6862915,515 77,512.313708 77,509 L77,91 C77,87.6862915 79.6862915,85 83,85 Z" id="Rectangle-Copy-23" fill="#333333"></path>
            </g>
        </g>
    </g>
</svg>