<svg xmlns="http://www.w3.org/2000/svg" width="154" height="103" viewBox="0 0 154 103">
    <defs>
        <ellipse id="a" cx="20.335" cy="20.35" rx="20.335" ry="20.35"/>
    </defs>
    <g fill="none" fill-rule="evenodd">
        <path fill="#F2F2F2" fill-opacity=".8" d="M21.897 83.69c2.296 3.107 5.223 5.628 8.714 7.495C35.265 93.675 39.88 95 52.612 95h21.706c12.731 0 17.348-1.326 22.002-3.815 3.494-1.868 6.424-4.393 8.72-7.505C118.49 85.697 127 88.676 127 92c0 6.075-28.43 11-63.5 11S0 98.075 0 92c0-3.318 8.483-6.294 21.897-8.31z"/>
        <path fill="#D8D8D8" fill-rule="nonzero" d="M108.93 59.167c.655.21 1.32.397 1.996.562-.092 11.721-1.41 16.173-3.81 20.66-2.49 4.655-6.142 8.307-10.796 10.796C91.666 93.675 87.05 95 74.318 95H52.612c-12.73 0-17.347-1.326-22.001-3.815-4.655-2.489-8.307-6.141-10.796-10.796C17.325 75.735 16 71.12 16 58.388V36.612c0-12.73 1.326-17.347 3.815-22.001 2.489-4.655 6.141-8.307 10.796-10.796C35.265 1.325 39.88 0 52.612 0h21.706C87.05 0 91.666 1.326 96.32 3.815a26.541 26.541 0 0 1 4.713 3.204 29.53 29.53 0 0 0-1.638 1.237 24.627 24.627 0 0 0-4.018-2.678C90.417 2.926 85.624 2 74.318 2H52.612c-11.305 0-16.098.926-21.058 3.578-4.306 2.303-7.673 5.67-9.976 9.976C18.926 20.514 18 25.307 18 36.612v21.776c0 11.305.926 16.098 3.578 21.058 2.303 4.306 5.67 7.673 9.976 9.976C36.514 92.074 41.307 93 52.612 93h21.706c11.306 0 16.099-.926 21.059-3.578 4.306-2.303 7.673-5.67 9.975-9.976 2.591-4.844 3.535-9.53 3.577-20.28z"/>
        <path fill="#E6E6E6" d="M48 39a4 4 0 1 1 0-8 4 4 0 0 1 0 8zm30 0a4 4 0 1 1 0-8 4 4 0 0 1 0 8zM55.32 68.074C56.526 62.69 59.128 60 63.129 60c4.008 0 6.556 2.7 7.647 8.102a1.4 1.4 0 0 1-1.373 1.677H56.687a1.4 1.4 0 0 1-1.366-1.705z"/>
        <ellipse cx="20.335" cy="20.35" stroke="#999" stroke-width="2" rx="21.335" ry="21.35" transform="translate(97.574 10.78)"/>
        <path fill="#999" fill-rule="nonzero" d="M132.258 48.905a1 1 0 1 1 1.415-1.413l3.216 3.218a1 1 0 1 1-1.415 1.414l-3.216-3.219z"/>
        <path fill="#999" fill-rule="nonzero" d="M139.248 52.378a1.493 1.493 0 0 0-2.111 2.11l11.704 11.705a1.493 1.493 0 1 0 2.11-2.111l-11.703-11.704zm1.414-1.415l11.704 11.704a3.493 3.493 0 1 1-4.94 4.94l-11.704-11.704a3.493 3.493 0 1 1 4.94-4.94z"/>
    </g>
</svg>
